<svg width="25" height="24" viewBox="0 0 25 24" fill="none" xmlns="http://www.w3.org/2000/svg">
<g id="hotel">
<path id="Vector" d="M14.5 8H15.5C15.7652 8 16.0196 7.89464 16.2071 7.70711C16.3946 7.51957 16.5 7.26522 16.5 7C16.5 6.73478 16.3946 6.48043 16.2071 6.29289C16.0196 6.10536 15.7652 6 15.5 6H14.5C14.2348 6 13.9804 6.10536 13.7929 6.29289C13.6054 6.48043 13.5 6.73478 13.5 7C13.5 7.26522 13.6054 7.51957 13.7929 7.70711C13.9804 7.89464 14.2348 8 14.5 8ZM14.5 12H15.5C15.7652 12 16.0196 11.8946 16.2071 11.7071C16.3946 11.5196 16.5 11.2652 16.5 11C16.5 10.7348 16.3946 10.4804 16.2071 10.2929C16.0196 10.1054 15.7652 10 15.5 10H14.5C14.2348 10 13.9804 10.1054 13.7929 10.2929C13.6054 10.4804 13.5 10.7348 13.5 11C13.5 11.2652 13.6054 11.5196 13.7929 11.7071C13.9804 11.8946 14.2348 12 14.5 12ZM9.5 8H10.5C10.7652 8 11.0196 7.89464 11.2071 7.70711C11.3946 7.51957 11.5 7.26522 11.5 7C11.5 6.73478 11.3946 6.48043 11.2071 6.29289C11.0196 6.10536 10.7652 6 10.5 6H9.5C9.23478 6 8.98043 6.10536 8.79289 6.29289C8.60536 6.48043 8.5 6.73478 8.5 7C8.5 7.26522 8.60536 7.51957 8.79289 7.70711C8.98043 7.89464 9.23478 8 9.5 8ZM9.5 12L10.5 12C10.7652 12 11.0196 11.8946 11.2071 11.7071C11.3946 11.5196 11.5 11.2652 11.5 11C11.5 10.7348 11.3946 10.4804 11.2071 10.2929C11.0196 10.1054 10.7652 10 10.5 10H9.5C9.23478 10 8.98043 10.1054 8.79289 10.2929C8.60536 10.4804 8.5 10.7348 8.5 11C8.5 11.2652 8.60536 11.5196 8.79289 11.7071C8.98043 11.8946 9.23478 12 9.5 12ZM21.5 20H20.5L20.5 3C20.5 2.73478 20.3946 2.48043 20.2071 2.29289C20.0196 2.10536 19.7652 2 19.5 2L5.5 2C5.23478 2 4.98043 2.10536 4.79289 2.29289C4.60536 2.48043 4.5 2.73478 4.5 3L4.5 20H3.5C3.23478 20 2.98043 20.1054 2.79289 20.2929C2.60536 20.4804 2.5 20.7348 2.5 21C2.5 21.2652 2.60536 21.5196 2.79289 21.7071C2.98043 21.8946 3.23478 22 3.5 22L21.5 22C21.7652 22 22.0196 21.8946 22.2071 21.7071C22.3946 21.5196 22.5 21.2652 22.5 21C22.5 20.7348 22.3946 20.4804 22.2071 20.2929C22.0196 20.1054 21.7652 20 21.5 20ZM13.5 20H11.5V16H13.5V20ZM18.5 20L15.5 20V15C15.5 14.7348 15.3946 14.4804 15.2071 14.2929C15.0196 14.1054 14.7652 14 14.5 14H10.5C10.2348 14 9.98043 14.1054 9.79289 14.2929C9.60536 14.4804 9.5 14.7348 9.5 15V20H6.5L6.5 4L18.5 4L18.5 20Z" fill="white"/>
</g>
</svg>
