<svg width="17" height="16" viewBox="0 0 17 16" fill="none" xmlns="http://www.w3.org/2000/svg">
<g id="restaurant/icon">
<path id="Vector" d="M4.5 11.2C4.34178 11.2 4.18711 11.2469 4.05555 11.3348C3.92399 11.4227 3.82145 11.5477 3.7609 11.6939C3.70035 11.84 3.68451 12.0009 3.71537 12.1561C3.74624 12.3113 3.82243 12.4538 3.93432 12.5657C4.0462 12.6776 4.18875 12.7538 4.34393 12.7846C4.49911 12.8155 4.65997 12.7997 4.80615 12.7391C4.95233 12.6786 5.07727 12.576 5.16518 12.4445C5.25308 12.3129 5.3 12.1582 5.3 12C5.3 11.7878 5.21572 11.5843 5.06569 11.4343C4.91566 11.2843 4.71218 11.2 4.5 11.2ZM14.148 8L15.132 7.016C15.5814 6.566 15.8339 5.956 15.8339 5.32C15.8339 4.68399 15.5814 4.074 15.132 3.624L12.868 1.368C12.418 0.918557 11.808 0.66611 11.172 0.66611C10.536 0.66611 9.926 0.918557 9.476 1.368L8.5 2.352C8.48743 1.72383 8.22904 1.12565 7.78031 0.685888C7.33158 0.24613 6.72829 -0.000126711 6.1 -9.3106e-07L2.9 -3.71554e-07C2.26348 -2.60261e-07 1.65303 0.252856 1.20294 0.702944C0.752857 1.15303 0.5 1.76348 0.5 2.4L0.500002 13.6C0.500002 14.2365 0.752859 14.847 1.20295 15.2971C1.65303 15.7471 2.26348 16 2.9 16L14.1 16C14.7365 16 15.347 15.7471 15.7971 15.2971C16.2471 14.847 16.5 14.2365 16.5 13.6L16.5 10.4C16.5001 9.77171 16.2539 9.16842 15.8141 8.71969C15.3744 8.27096 14.7762 8.01256 14.148 8ZM6.9 13.6C6.9 13.8122 6.81572 14.0157 6.66569 14.1657C6.51566 14.3157 6.31218 14.4 6.1 14.4L2.9 14.4C2.68783 14.4 2.48435 14.3157 2.33432 14.1657C2.18429 14.0157 2.1 13.8122 2.1 13.6L2.1 2.4C2.1 2.18783 2.18429 1.98434 2.33432 1.83431C2.48434 1.68429 2.68783 1.6 2.9 1.6L6.1 1.6C6.31217 1.6 6.51566 1.68428 6.66569 1.83431C6.81571 1.98434 6.9 2.18783 6.9 2.4L6.9 13.6ZM8.5 4.608L10.612 2.496C10.7619 2.347 10.9647 2.26336 11.176 2.26336C11.3873 2.26336 11.5901 2.347 11.74 2.496L14.004 4.8C14.153 4.94989 14.2366 5.15265 14.2366 5.364C14.2366 5.57535 14.153 5.77811 14.004 5.928L11.7 8.232L8.5 11.392L8.5 4.608ZM14.9 13.6C14.9 13.8122 14.8157 14.0157 14.6657 14.1657C14.5157 14.3157 14.3122 14.4 14.1 14.4L8.356 14.4C8.43807 14.1629 8.48392 13.9148 8.492 13.664L12.556 9.6L14.1 9.6C14.3122 9.6 14.5157 9.68428 14.6657 9.83431C14.8157 9.98434 14.9 10.1878 14.9 10.4L14.9 13.6Z" fill="white"/>
</g>
</svg>
