<svg width="25" height="24" viewBox="0 0 25 24" fill="none" xmlns="http://www.w3.org/2000/svg">
<g id="rout">
<path id="Vector" d="M19.7727 14.1818H18.3182V12C18.3182 11.8071 18.2416 11.6221 18.1052 11.4857C17.9688 11.3494 17.7838 11.2727 17.5909 11.2727L13.2273 11.2727L13.2273 9.81818H14.6818C14.8747 9.81818 15.0597 9.74156 15.1961 9.60517C15.3325 9.46878 15.4091 9.28379 15.4091 9.09091V4.72727C15.4091 4.53439 15.3325 4.3494 15.1961 4.21301C15.0597 4.07662 14.8747 4 14.6818 4L10.3182 4C10.1253 4 9.94031 4.07662 9.80392 4.21301C9.66753 4.3494 9.59091 4.53439 9.59091 4.72727V9.09091C9.59091 9.28379 9.66753 9.46878 9.80392 9.60517C9.94031 9.74156 10.1253 9.81818 10.3182 9.81818H11.7727V11.2727H7.40909C7.21621 11.2727 7.03122 11.3494 6.89483 11.4857C6.75844 11.6221 6.68182 11.8071 6.68182 12L6.68182 14.1818H5.22727C5.03439 14.1818 4.8494 14.2584 4.71301 14.3948C4.57662 14.5312 4.5 14.7162 4.5 14.9091V19.2727C4.5 19.4656 4.57662 19.6506 4.71301 19.787C4.8494 19.9234 5.03439 20 5.22727 20H9.59091C9.78379 20 9.96878 19.9234 10.1052 19.787C10.2416 19.6506 10.3182 19.4656 10.3182 19.2727V14.9091C10.3182 14.7162 10.2416 14.5312 10.1052 14.3948C9.96878 14.2584 9.78379 14.1818 9.59091 14.1818H8.13636L8.13636 12.7273L16.8636 12.7273V14.1818H15.4091C15.2162 14.1818 15.0312 14.2584 14.8948 14.3948C14.7584 14.5312 14.6818 14.7162 14.6818 14.9091V19.2727C14.6818 19.4656 14.7584 19.6506 14.8948 19.787C15.0312 19.9234 15.2162 20 15.4091 20H19.7727C19.9656 20 20.1506 19.9234 20.287 19.787C20.4234 19.6506 20.5 19.4656 20.5 19.2727L20.5 14.9091C20.5 14.7162 20.4234 14.5312 20.287 14.3948C20.1506 14.2584 19.9656 14.1818 19.7727 14.1818ZM8.86364 15.6364V18.5455H5.95455V15.6364H8.86364ZM11.0455 8.36364V5.45455H13.9545V8.36364H11.0455ZM19.0455 18.5455H16.1364V15.6364H19.0455V18.5455Z" fill="white"/>
</g>
</svg>
