<svg width="25" height="24" viewBox="0 0 25 24" fill="none" xmlns="http://www.w3.org/2000/svg">
<g id="star">
<path id="Vector" d="M22.4936 9.23411C22.4305 9.0512 22.3156 8.89054 22.163 8.77161C22.0103 8.65269 21.8264 8.58061 21.6336 8.56411L15.9436 7.73411L13.3936 2.56411C13.3117 2.39504 13.1839 2.25245 13.0247 2.15268C12.8655 2.05291 12.6815 2 12.4936 2C12.3058 2 12.1217 2.05291 11.9625 2.15268C11.8034 2.25245 11.6755 2.39504 11.5936 2.56411L9.04363 7.72411L3.35363 8.56411C3.16855 8.59042 2.99455 8.66807 2.85138 8.78827C2.70821 8.90846 2.60159 9.06638 2.54363 9.24411C2.49057 9.41778 2.48581 9.60263 2.52986 9.7788C2.5739 9.95498 2.66509 10.1158 2.79363 10.2441L6.92363 14.2441L5.92363 19.9241C5.88326 20.1125 5.89818 20.3086 5.96661 20.4887C6.03505 20.6689 6.15407 20.8254 6.30936 20.9395C6.46465 21.0536 6.6496 21.1204 6.84196 21.1319C7.03432 21.1433 7.22589 21.099 7.39363 21.0041L12.4936 18.3341L17.5936 21.0041C17.734 21.0833 17.8925 21.1246 18.0536 21.1241C18.2655 21.1249 18.472 21.0583 18.6436 20.9341C18.7988 20.823 18.9189 20.6698 18.9898 20.4926C19.0606 20.3154 19.0793 20.1216 19.0436 19.9341L18.0436 14.2541L22.1736 10.2541C22.318 10.1318 22.4247 9.97101 22.4814 9.79046C22.538 9.6099 22.5423 9.41698 22.4936 9.23411ZM16.3436 13.2341C16.2279 13.3465 16.1411 13.4853 16.0906 13.6385C16.0401 13.7917 16.0274 13.9549 16.0536 14.1141L16.7736 18.3141L13.0136 16.3141C12.8675 16.2418 12.7067 16.2042 12.5436 16.2042C12.3806 16.2042 12.2198 16.2418 12.0736 16.3141L8.31363 18.3141L9.03363 14.1141C9.05987 13.9549 9.0472 13.7917 8.9967 13.6385C8.9462 13.4853 8.85937 13.3465 8.74363 13.2341L5.74363 10.2341L9.95363 9.62411C10.1156 9.60158 10.2696 9.53965 10.4021 9.44376C10.5346 9.34787 10.6416 9.22095 10.7136 9.07411L12.4936 5.26411L14.3736 9.08411C14.4457 9.23095 14.5526 9.35787 14.6851 9.45376C14.8176 9.54965 14.9716 9.61158 15.1336 9.63411L19.3436 10.2441L16.3436 13.2341Z" fill="white"/>
</g>
</svg>
