<svg width="327" height="308" viewBox="0 0 327 308" fill="none" xmlns="http://www.w3.org/2000/svg">
<rect x="0.916016" width="326" height="308" rx="23" fill="#ECECEC"/>
<rect x="20.916" y="20" width="244" height="124" rx="19" fill="white"/>
<circle cx="57.416" cy="56.5" r="24.5" fill="#DDDDDD"/>
<rect x="96.916" y="47" width="110" height="7" rx="3.5" fill="#DDDDDD"/>
<rect x="96.916" y="59" width="42" height="7" rx="3.5" fill="#DDDDDD"/>
<rect x="32.916" y="99" width="166" height="7" rx="3.5" fill="#DDDDDD"/>
<rect x="32.916" y="112" width="166" height="7" rx="3.5" fill="#DDDDDD"/>
<rect x="32.916" y="125" width="42" height="7" rx="3.5" fill="#DDDDDD"/>
<rect x="20.916" y="164" width="244" height="124" rx="19" fill="white"/>
<circle cx="57.416" cy="200.5" r="24.5" fill="#DDDDDD"/>
<rect x="96.916" y="191" width="110" height="7" rx="3.5" fill="#DDDDDD"/>
<rect x="96.916" y="203" width="42" height="7" rx="3.5" fill="#DDDDDD"/>
<rect x="32.916" y="243" width="166" height="7" rx="3.5" fill="#DDDDDD"/>
<rect x="32.916" y="256" width="166" height="7" rx="3.5" fill="#DDDDDD"/>
<rect x="32.916" y="269" width="42" height="7" rx="3.5" fill="#DDDDDD"/>
</svg>
