<svg width="66" height="15" viewBox="0 0 66 15" fill="none" xmlns="http://www.w3.org/2000/svg">
<path d="M10.5336 14.5846H14.0336L9.27359 0.584594H5.19359L0.433594 14.5846H3.93359L4.63359 12.3846H9.83359L10.5336 14.5846ZM5.59359 9.38459L7.23359 4.24459L8.87359 9.38459H5.59359ZM16.6273 3.70459C17.6073 3.70459 18.4273 2.88459 18.4273 1.90459C18.4273 0.924594 17.6073 0.104594 16.6273 0.104594C15.6473 0.104594 14.8273 0.924594 14.8273 1.90459C14.8273 2.88459 15.6473 3.70459 16.6273 3.70459ZM15.1273 14.5846H18.1273V4.58459H15.1273V14.5846ZM23.3227 6.36459V4.58459H20.3227V14.5846H23.3227V10.0646C23.3227 8.08459 25.0827 7.58459 26.3227 7.78459V4.38459C25.0627 4.38459 23.7227 5.02459 23.3227 6.36459ZM33.878 7.46459V4.58459H31.818V1.78459L28.818 2.68459V4.58459H27.218V7.46459H28.818V11.0046C28.818 13.8046 29.958 14.9846 33.878 14.5846V11.8646C32.558 11.9446 31.818 11.8646 31.818 11.0046V7.46459H33.878ZM38.7719 6.36459V4.58459H35.7719V14.5846H38.7719V10.0646C38.7719 8.08459 40.5319 7.58459 41.7719 7.78459V4.38459C40.5119 4.38459 39.1719 5.02459 38.7719 6.36459ZM50.1413 4.58459V5.52459C49.4813 4.76459 48.5013 4.30459 47.1613 4.30459C44.5413 4.30459 42.3813 6.60459 42.3813 9.58459C42.3813 12.5646 44.5413 14.8646 47.1613 14.8646C48.5013 14.8646 49.4813 14.4046 50.1413 13.6446V14.5846H53.1413V4.58459H50.1413ZM47.7613 12.0246C46.3813 12.0246 45.3813 11.0846 45.3813 9.58459C45.3813 8.08459 46.3813 7.14459 47.7613 7.14459C49.1413 7.14459 50.1413 8.08459 50.1413 9.58459C50.1413 11.0846 49.1413 12.0246 47.7613 12.0246ZM61.7222 4.58459L59.6422 10.9246L57.5622 4.58459H54.2422L57.9422 14.5846H61.3422L65.0422 4.58459H61.7222Z" fill="#353945"/>
</svg>
