<svg width="24" height="25" viewBox="0 0 24 25" fill="none" xmlns="http://www.w3.org/2000/svg">
<g id="icon 1">
<path id="Vector" d="M18.3933 4.5212L5.23785 6.06378C4.71926 6.12555 4.23238 6.34578 3.84359 6.69445C3.45481 7.04312 3.18303 7.50325 3.06532 8.01211C2.94761 8.52097 2.9897 9.0538 3.18584 9.53795C3.38198 10.0221 3.72264 10.434 4.16136 10.7175L8.35231 13.4045C8.45111 13.4711 8.53565 13.5567 8.60101 13.6564C8.66636 13.756 8.71122 13.8677 8.73295 13.9849L9.52756 18.8994C9.59572 19.317 9.76714 19.7109 10.0262 20.0455C10.2853 20.38 10.6239 20.6445 11.0112 20.8149C11.3984 20.9853 11.8221 21.0563 12.2437 21.0213C12.6653 20.9863 13.0715 20.8465 13.4252 20.6146C13.7544 20.394 14.03 20.1026 14.2319 19.7616L20.8885 8.31023C21.1239 7.90296 21.2415 7.43825 21.2282 6.96796C21.2149 6.49766 21.0712 6.04028 20.8132 5.64683C20.5551 5.25339 20.1929 4.93936 19.7668 4.73978C19.3408 4.5402 18.8677 4.46292 18.4003 4.51656L18.3933 4.5212ZM19.4207 7.46097L12.7642 18.9124C12.6751 19.0602 12.5429 19.1772 12.3854 19.2477C12.2279 19.3182 12.0526 19.3389 11.883 19.3069C11.7134 19.275 11.5576 19.1919 11.4365 19.0689C11.3154 18.9459 11.2348 18.7889 11.2055 18.6188L10.4038 13.7089C10.3924 13.6438 10.3772 13.5794 10.3583 13.5161L15.2335 10.3186C15.4211 10.1955 15.5522 10.0029 15.5978 9.78317C15.6435 9.5634 15.5999 9.33448 15.4768 9.14677C15.3537 8.95906 15.1611 8.82793 14.9413 8.78222C14.7216 8.73652 14.4927 8.77999 14.305 8.90307L9.42989 12.1005C9.37934 12.0579 9.32633 12.0183 9.27115 11.9819L5.08729 9.29032C4.94296 9.19566 4.831 9.05913 4.76644 8.89905C4.70188 8.73897 4.68779 8.56299 4.72606 8.3947C4.76434 8.22641 4.85315 8.07386 4.98058 7.95751C5.10802 7.84115 5.26799 7.76656 5.43904 7.74372L18.5945 6.20114C18.7493 6.18452 18.9058 6.21096 19.0466 6.27756C19.1874 6.34416 19.3071 6.44832 19.3925 6.57858C19.478 6.70885 19.5258 6.86015 19.5308 7.01584C19.5358 7.17153 19.4977 7.32556 19.4207 7.46097Z" fill="white"/>
</g>
</svg>
