<svg width="16" height="17" viewBox="0 0 16 17" fill="none" xmlns="http://www.w3.org/2000/svg">
<g id="restaurant/icon">
<path id="Vector" d="M15.9966 2.96676C15.9973 2.47906 15.8532 2.00214 15.5825 1.59641C15.3119 1.19069 14.9269 0.87443 14.4764 0.687704C14.0259 0.500978 13.53 0.452189 13.0517 0.54752C12.5734 0.64285 12.1342 0.878009 11.7897 1.2232L9.54224 3.47064L4.35154 1.74307C4.21334 1.69963 4.06594 1.69455 3.92508 1.72836C3.78421 1.76216 3.65517 1.83359 3.55174 1.93502L1.64822 3.82255C1.55803 3.91379 1.49111 4.02539 1.45311 4.14792C1.4151 4.27046 1.40714 4.40034 1.42988 4.5266C1.45263 4.65287 1.50541 4.7718 1.58378 4.87338C1.66215 4.97496 1.7638 5.05619 1.88016 5.11023L6.02312 6.98975L3.94364 9.06923L2.57599 8.3814C2.42832 8.30149 2.25925 8.27007 2.09273 8.2916C1.92622 8.31313 1.7707 8.38652 1.64822 8.50137L0.232576 9.94901C0.0836124 10.0989 0 10.3016 0 10.5129C0 10.7242 0.0836124 10.9269 0.232576 11.0767L5.42327 16.2674C5.57312 16.4164 5.77584 16.5 5.98713 16.5C6.19843 16.5 6.40114 16.4164 6.55099 16.2674L7.99863 14.8518C8.11866 14.733 8.19802 14.5792 8.22531 14.4126C8.25261 14.2459 8.22645 14.0749 8.15059 13.924L7.46276 12.5564L9.54224 10.4769L11.4218 14.6198C11.4758 14.7362 11.557 14.8379 11.6586 14.9162C11.7602 14.9946 11.8791 15.0474 12.0054 15.0701C12.1317 15.0929 12.2615 15.0849 12.3841 15.0469C12.5066 15.0089 12.6182 14.942 12.7094 14.8518L14.597 12.9643C14.6984 12.8608 14.7698 12.7318 14.8036 12.5909C14.8374 12.4501 14.8324 12.3027 14.7889 12.1645L13.0614 6.97376L15.2768 4.71033C15.5065 4.48204 15.6885 4.21029 15.8121 3.91094C15.9356 3.61158 15.9984 3.29062 15.9966 2.96676ZM14.1411 3.58261L11.5497 6.17396C11.4483 6.27739 11.3769 6.40643 11.3431 6.54729C11.3093 6.68816 11.3143 6.83556 11.3578 6.97376L13.0854 12.1565L12.3655 12.8763L10.486 8.74131C10.4327 8.62388 10.3517 8.52108 10.25 8.4417C10.1484 8.36232 10.029 8.3087 9.90215 8.28543C9.77423 8.26208 9.64255 8.27027 9.51852 8.3093C9.39448 8.34832 9.28183 8.41699 9.19033 8.50937L5.89515 11.8365C5.77685 11.9547 5.69857 12.107 5.67131 12.272C5.64405 12.437 5.66919 12.6064 5.74319 12.7563L6.39903 14.1L5.95114 14.5479L1.92815 10.5169L2.40003 10.101L3.76769 10.7888C3.91764 10.8628 4.08702 10.8879 4.252 10.8607C4.41699 10.8334 4.56928 10.7551 4.68746 10.6368L7.99863 7.30967C8.09052 7.21849 8.15892 7.10636 8.19793 6.98292C8.23694 6.85948 8.2454 6.72842 8.22259 6.60098C8.19978 6.47355 8.14637 6.35356 8.06696 6.25132C7.98755 6.14907 7.88451 6.06764 7.76668 6.014L3.59973 4.13447L4.31955 3.41465L9.50225 5.14222C9.64045 5.18565 9.78785 5.19074 9.92871 5.15693C10.0696 5.12312 10.1986 5.05169 10.302 4.95027L12.8934 2.35892C12.9731 2.27742 13.0683 2.21266 13.1733 2.16845C13.2784 2.12425 13.3913 2.10147 13.5052 2.10147C13.6192 2.10147 13.7321 2.12425 13.8371 2.16845C13.9422 2.21266 14.0374 2.27742 14.1171 2.35892C14.2005 2.43621 14.2665 2.53041 14.3106 2.63523C14.3548 2.74005 14.376 2.85307 14.373 2.96676C14.3774 3.07969 14.3591 3.19235 14.3192 3.29811C14.2794 3.40387 14.2188 3.5006 14.1411 3.58261Z" fill="white"/>
</g>
</svg>
